<?xml version="1.0" standalone="no"?>
<!DOCTYPE svg PUBLIC "-//W3C//DTD SVG 20010904//EN"
 "http://www.w3.org/TR/2001/REC-SVG-20010904/DTD/svg10.dtd">
<svg version="1.0" xmlns="http://www.w3.org/2000/svg"
 width="522.000000pt" height="522.000000pt" viewBox="0 0 522.000000 522.000000"
 preserveAspectRatio="xMidYMid meet">
<metadata>
Created by potrace 1.11, written by Peter Selinger 2001-2013
</metadata>
<g transform="translate(0.000000,522.000000) scale(0.100000,-0.100000)"
fill="#000000" stroke="none">
<path d="M2338 4611 c-65 -10 -120 -19 -122 -22 -2 -2 -45 -103 -96 -224 -50
-121 -97 -233 -105 -250 -7 -16 -59 -140 -115 -275 -56 -135 -108 -258 -115
-275 -28 -63 -125 -294 -160 -380 -20 -49 -43 -103 -50 -120 -8 -16 -42 -97
-76 -180 -34 -82 -70 -168 -79 -190 -10 -22 -87 -204 -171 -405 -83 -201 -159
-383 -169 -405 -10 -22 -32 -76 -50 -120 -96 -231 -147 -322 -202 -360 -30
-20 -285 -107 -316 -108 -9 0 -12 -11 -8 -36 3 -20 5 -48 6 -62 l0 -25 535 -1
535 0 -2 59 c-2 42 -7 62 -18 67 -8 4 -68 23 -133 41 -77 22 -126 41 -143 57
-24 22 -26 29 -20 78 3 30 10 65 15 77 5 13 33 86 61 163 29 77 58 154 65 170
7 17 36 91 65 165 28 74 56 144 61 155 4 11 26 65 48 120 l39 100 575 0 575 1
60 -161 c33 -88 165 -439 292 -780 257 -690 328 -876 332 -880 2 -2 288 -6
636 -10 l632 -6 0 69 0 69 -67 12 c-413 75 -823 203 -912 284 -39 36 -82 139
-241 582 -176 489 -304 865 -716 2103 -169 509 -312 922 -318 921 -6 -1 -64
-9 -128 -18z m9 -1001 c236 -663 333 -940 330 -941 -11 -5 -950 -2 -953 3 -2
3 65 181 149 395 134 337 319 807 341 868 10 25 -1 51 133 -325z"/>
</g>
</svg>
